<?xml version="1.0" encoding="UTF-8" standalone="no"?>
<!-- Created with Inkscape (http://www.inkscape.org/) -->

<svg
   width="2365.7776"
   height="1146.7766"
   viewBox="0 0 625.9453 303.41798"
   version="1.1"
   id="svg1"
   inkscape:version="1.3 (0e150ed6c4, 2023-07-21)"
   sodipodi:docname="circuito.svg"
   inkscape:export-filename="óvalo.png"
   inkscape:export-xdpi="96"
   inkscape:export-ydpi="96"
   xmlns:inkscape="http://www.inkscape.org/namespaces/inkscape"
   xmlns:sodipodi="http://sodipodi.sourceforge.net/DTD/sodipodi-0.dtd"
   xmlns="http://www.w3.org/2000/svg"
   xmlns:svg="http://www.w3.org/2000/svg">
  <sodipodi:namedview
     id="namedview1"
     pagecolor="#ffffff"
     bordercolor="#000000"
     borderopacity="0.25"
     inkscape:showpageshadow="2"
     inkscape:pageopacity="0.0"
     inkscape:pagecheckerboard="0"
     inkscape:deskcolor="#d1d1d1"
     inkscape:document-units="mm"
     showgrid="true"
     inkscape:zoom="0.2799099"
     inkscape:cx="1161.0879"
     inkscape:cy="537.67302"
     inkscape:window-width="1366"
     inkscape:window-height="705"
     inkscape:window-x="-8"
     inkscape:window-y="-8"
     inkscape:window-maximized="1"
     inkscape:current-layer="layer1">
    <inkscape:grid
       id="grid1"
       units="px"
       originx="1.8897638"
       originy="1.8897638"
       spacingx="7.9374999"
       spacingy="7.9374999"
       empcolor="#0099e5"
       empopacity="0.30196078"
       color="#0099e5"
       opacity="0.14901961"
       empspacing="5"
       dotted="false"
       gridanglex="30"
       gridanglez="30"
       visible="true" />
  </sodipodi:namedview>
  <defs
     id="defs1" />
  <g
     inkscape:label="Capa 1"
     inkscape:groupmode="layer"
     id="layer1"
     transform="translate(0.5,0.5)">
    <path
       style="color:#000000;fill:#000000;-inkscape-stroke:none"
       d="M 216.43359,49.966797 C 163.45194,49.64391 105.05892,74.04673 76.087891,116.83789 64.453205,134.02271 55.59605,159.51558 53.949219,183.625 c -0.823416,12.05471 0.167965,23.77666 3.796875,33.95117 3.62891,10.17452 10.045505,18.85201 19.755859,24.04883 5.961089,3.19028 12.122371,4.04806 17.914063,2.94727 5.791694,-1.1008 11.157404,-4.01307 16.244144,-7.93165 10.17347,-7.83715 19.48189,-19.81496 28.86523,-31.92187 9.38334,-12.10691 18.8126,-24.35085 28.36133,-32.55664 9.54872,-8.2058 18.59082,-12.216 28.53125,-9.57617 5.85665,1.55532 9.26295,5.37433 11.99609,11.4375 2.73315,6.06316 4.36442,14.18912 5.90235,22.73047 1.53792,8.54134 3.00245,17.49381 5.89257,25.49609 2.89013,8.00228 7.37821,15.27294 15.04297,19.375 48.41346,25.9101 121.37613,28.25669 186.07227,18.21289 32.34807,-5.0219 62.61316,-13.19097 86.73047,-23.35547 24.1173,-10.16449 42.23878,-22.07669 50.03906,-36.11719 20.40741,-36.73332 16.4617,-68.7101 -1.37695,-90.74609 C 539.87814,87.583153 508.99216,75.406251 476.25,75.40625 447.73275,75.406249 420.9242,88.610618 394.82422,99.939453 368.72424,111.26829 343.54577,120.68548 318.3457,115.18555 303.60218,111.96776 292.59812,98.357763 281.0625,83.982422 269.52688,69.607081 257.3536,54.399916 238.70703,51.636719 231.46059,50.562883 224.0024,50.012924 216.43359,49.966797 Z m -0.0117,7.980469 c 7.1981,0.02 14.27322,0.526243 21.1211,1.541015 14.87058,2.20364 25.8335,15.134257 37.33008,29.460938 11.49657,14.326681 23.42087,29.983071 41.78125,33.990231 28.09068,6.13081 55.01412,-4.29617 81.33007,-15.71875 26.31596,-11.422578 52.23768,-23.87695 78.26563,-23.87695 30.75779,0 59.40314,11.635638 75.29883,31.27148 15.89568,19.63585 19.88749,47.19043 0.60742,81.89454 -6.09835,10.97703 -22.85889,22.82693 -46.18555,32.6582 -23.32665,9.83127 -53.06762,17.89168 -84.86523,22.82812 -63.59523,9.87289 -135.48425,7.04569 -181.10742,-17.37109 -5.37578,-2.87703 -8.79508,-8.06951 -11.32422,-15.07227 -2.52914,-7.00276 -3.9949,-15.59653 -5.54492,-24.20507 -1.55003,-8.60855 -3.16509,-17.23547 -6.47852,-24.58594 -3.31343,-7.35047 -8.75486,-13.60669 -17.19336,-15.84766 -13.1098,-3.4815 -25.21776,2.18257 -35.74414,11.22852 -10.52638,9.04595 -20.09805,21.63238 -29.46094,33.71289 -9.36288,12.08051 -18.54737,23.64756 -27.4375,30.49609 -4.44506,3.42427 -8.752731,5.63922 -12.880856,6.42383 -4.128126,0.78461 -8.133022,0.28605 -12.685547,-2.15039 -7.785359,-4.1666 -12.897302,-10.9445 -16.025391,-19.71484 -3.128088,-8.77035 -4.122786,-19.4821 -3.353515,-30.74414 1.538542,-22.52409 10.17772,-47.19984 20.792968,-62.87891 C 109.60688,81.488798 166.03518,57.807283 216.42187,57.947266 Z"
       id="path7" />
    <path
       style="color:#000000;fill:#ffffff;-inkscape-stroke:none"
       d="M -0.5,-0.5 V 0 302.91797 H 625.44531 V -0.5 Z m 1,1 H 624.44531 V 301.91797 H 0.5 Z"
       id="rect1" />
  </g>
</svg>
